<svg xmlns="http://www.w3.org/2000/svg" width="17" height="40" fill="none" viewBox="0 0 17 35"><path fill="#212121" stroke="transparent" stroke-linecap="round" d="M14.176 10.078c-.027 2.65-2.465 4.77-2.465 4.77s-2.396-2.176-2.371-4.826c.026-2.652 2.466-4.77 2.466-4.77s2.394 2.177 2.37 4.826Zm1.258 9.094c-1.444 2.226-4.647 2.729-4.647 2.729s-.864-3.106.58-5.331 4.649-2.73 4.649-2.73.863 3.107-.582 5.332Zm-2.483 8.19c-2.338 1.276-5.402.209-5.402.209s.727-3.138 3.064-4.413 5.402-.21 5.402-.21-.727 3.138-3.065 4.414Zm-6.708 6.002c-2.554.769-5.331-.903-5.331-.903s1.364-2.918 3.917-3.689c2.554-.769 5.33.904 5.33.904s-1.363 2.919-3.916 3.688ZM7.759 3.29c1.676 2.066 1.155 5.242 1.155 5.242s-3.242-.17-4.918-2.237C2.32 4.229 2.84 1.051 2.84 1.051s3.242.173 4.918 2.24Z"/></svg>