<svg xmlns="http://www.w3.org/2000/svg" width="17" height="40" fill="none" viewBox="0 0 17 35"><path fill="#212121" stroke="transparent" stroke-linecap="round" d="M2.604 10.078c.026 2.65 2.464 4.77 2.464 4.77s2.397-2.176 2.372-4.826c-.027-2.652-2.466-4.77-2.466-4.77s-2.395 2.177-2.37 4.826Zm-1.258 9.094c1.443 2.226 4.647 2.729 4.647 2.729s.863-3.106-.58-5.331-4.65-2.73-4.65-2.73-.863 3.107.583 5.332Zm2.483 8.19c2.337 1.276 5.401.209 5.401.209s-.727-3.138-3.064-4.413-5.401-.21-5.401-.21.727 3.138 3.064 4.414Zm6.708 6.002c2.553.769 5.331-.903 5.331-.903s-1.364-2.918-3.918-3.689c-2.553-.769-5.33.904-5.33.904s1.363 2.919 3.917 3.688ZM9.02 3.29C7.345 5.356 7.866 8.532 7.866 8.532s3.242-.17 4.918-2.237c1.675-2.066 1.154-5.244 1.154-5.244s-3.242.173-4.917 2.24Z"/></svg>