<svg xmlns="http://www.w3.org/2000/svg" width="77" height="37" fill="none" viewBox="0 0 77 37"><ellipse cx="38.5" cy="18.5" fill="#e70c0c" rx="38.5" ry="18.5"/><path fill="#fff" d="M57.3 6.745c0 .97.38 1.901 1.054 2.587a3.57 3.57 0 0 0 2.546 1.072 3.57 3.57 0 0 0-2.546 1.072 3.7 3.7 0 0 0-1.054 2.588c0-.97-.38-1.902-1.054-2.588a3.57 3.57 0 0 0-2.546-1.072 3.57 3.57 0 0 0 2.546-1.072A3.7 3.7 0 0 0 57.3 6.745"/><path fill="#fff" fill-rule="evenodd" d="M69.264 19.224 68.9 16l-.364 3.224-1.404-1.092 1.04 1.404L65 19.9l3.224.364-1.144 1.456 1.456-1.092.364 3.172.364-3.172 1.456 1.092-1.144-1.456L72.8 19.9l-3.172-.364 1.04-1.404zM12.264 11.224 11.9 8l-.364 3.224-1.404-1.092 1.04 1.404L8 11.9l3.224.364-1.144 1.456 1.456-1.092.364 3.172.364-3.172 1.456 1.092-1.144-1.456L15.8 11.9l-3.172-.364 1.04-1.404z" clip-rule="evenodd"/><path fill="#fff" d="M12.533 20v-7h1.64l2.88 4.29V13h1.61v7h-1.64l-2.885-4.35V20zm9.953.15q-.84 0-1.475-.335a2.5 2.5 0 0 1-.99-.945q-.355-.61-.355-1.425 0-.59.205-1.085.21-.495.58-.855.375-.36.88-.555.51-.2 1.12-.2.67 0 1.195.24.525.236.865.66.345.42.475.995.13.57.01 1.24h-3.83q.005.3.18.525.176.225.48.355.305.125.71.125.45 0 .855-.115.405-.12.775-.365l.515 1.11q-.235.18-.61.325a5 5 0 0 1-.79.22 4 4 0 0 1-.795.085m-1.22-3.37h2.17a.79.79 0 0 0-.285-.615q-.275-.23-.745-.23-.475 0-.79.23a.84.84 0 0 0-.35.615M26.785 20l-1.525-5.1h1.585l.825 3.215.95-3.215h1.51l.915 3.215.815-3.215h1.525L31.86 20h-1.63l-.885-3.095-.93 3.095zm11.19 0v-2.925L35.522 13h1.865l1.455 2.485L40.28 13h1.815l-2.455 4.09V20zm6.416.15q-.84 0-1.475-.335a2.5 2.5 0 0 1-.99-.945q-.355-.61-.355-1.425 0-.59.205-1.085.21-.495.58-.855.375-.36.88-.555.51-.2 1.12-.2.67 0 1.195.24.525.236.865.66.345.42.475.995.13.57.01 1.24h-3.83q.005.3.18.525.174.225.48.355.305.125.71.125.45 0 .855-.115.405-.12.775-.365l.515 1.11q-.235.18-.61.325a5 5 0 0 1-.79.22 4 4 0 0 1-.795.085m-1.22-3.37h2.17a.79.79 0 0 0-.285-.615q-.276-.23-.745-.23-.475 0-.79.23a.84.84 0 0 0-.35.615m6.077 3.37q-.51 0-.915-.195a1.57 1.57 0 0 1-.64-.565 1.6 1.6 0 0 1-.235-.885q0-.44.215-.78.22-.34.66-.56t1.105-.295a7.6 7.6 0 0 1 1.565 0l.015 1.02a5 5 0 0 0-.86-.085 2.5 2.5 0 0 0-.65.065.9.9 0 0 0-.41.205.46.46 0 0 0-.145.345q0 .266.2.405.206.14.545.14.295 0 .53-.105a.9.9 0 0 0 .38-.305.84.84 0 0 0 .145-.5V16.89a1 1 0 0 0-.115-.485.76.76 0 0 0-.365-.325q-.245-.12-.655-.12-.395 0-.785.12-.39.115-.7.35l-.42-1.125q.495-.31 1.06-.455.566-.15 1.11-.15.72 0 1.265.23.55.23.86.71t.31 1.23V20h-1.415v-.54q-.245.33-.675.51t-.98.18m4.266-.15v-5.1h1.64v.595q.23-.395.61-.575t.825-.18q.17 0 .305.02t.265.045l-.195 1.685a2.4 2.4 0 0 0-.36-.095 2 2 0 0 0-.38-.04q-.465 0-.77.27-.3.266-.3.78V20zm6.249.14q-.71 0-1.3-.175a3.2 3.2 0 0 1-1.01-.495l.51-1.125q.414.265.89.42.474.15.9.15.39 0 .595-.105.205-.11.205-.315 0-.18-.19-.265-.186-.085-.73-.185-1.03-.175-1.51-.575-.475-.405-.475-1.105 0-.5.275-.875.274-.375.76-.58.489-.21 1.125-.21.62 0 1.17.165.554.165.95.46l-.495 1.125a2.883 2.883 0 0 0-1.025-.46 2.5 2.5 0 0 0-.555-.065 1.2 1.2 0 0 0-.545.105q-.205.1-.205.28 0 .185.18.275t.72.205q1.089.22 1.545.595.455.37.455 1.04 0 .52-.285.905a1.83 1.83 0 0 1-.785.6q-.501.21-1.17.21m-29.91 10.01q-.795 0-1.544-.235a3.6 3.6 0 0 1-1.27-.68l.78-1.24q.22.235.56.405t.725.265q.39.09.755.09.514 0 .835-.17.325-.175.325-.505a.56.56 0 0 0-.235-.455q-.23-.185-.865-.355l-.6-.17q-1.08-.3-1.555-.82a1.8 1.8 0 0 1-.475-1.25q0-.47.2-.865.2-.4.56-.69.36-.295.845-.455.489-.165 1.065-.165.794 0 1.475.235.684.23 1.1.63l-.81 1.2a1.8 1.8 0 0 0-.47-.35 2.7 2.7 0 0 0-1.275-.32q-.33 0-.575.085a.9.9 0 0 0-.385.245.55.55 0 0 0-.135.37q0 .175.1.295.105.115.345.22.244.105.66.23l.61.18q1.074.315 1.555.79t.48 1.235q0 .665-.34 1.175-.34.505-.965.79-.62.285-1.475.285m5.132 0q-.51 0-.915-.195a1.57 1.57 0 0 1-.64-.565 1.6 1.6 0 0 1-.235-.885q0-.44.215-.78.22-.34.66-.56t1.105-.295a7.6 7.6 0 0 1 1.565 0l.015 1.02a5 5 0 0 0-.86-.085 2.5 2.5 0 0 0-.65.065.9.9 0 0 0-.41.205.46.46 0 0 0-.145.345q0 .265.2.405.206.14.545.14.296 0 .53-.105a.9.9 0 0 0 .38-.305.84.84 0 0 0 .145-.5V26.89a1 1 0 0 0-.115-.485.76.76 0 0 0-.365-.325q-.244-.12-.655-.12-.395 0-.785.12-.39.115-.7.35l-.42-1.125q.495-.31 1.06-.455.566-.15 1.11-.15.72 0 1.265.23.55.23.86.71t.31 1.23V30H36.64v-.54q-.244.33-.675.51-.43.18-.98.18m4.266-.15v-7.2h1.64V30zm5.323.15q-.84 0-1.475-.335a2.5 2.5 0 0 1-.99-.945q-.355-.61-.355-1.425 0-.59.205-1.085.21-.495.58-.855.375-.36.88-.555.51-.2 1.12-.2.67 0 1.195.24.525.236.865.66.345.42.475.995.13.57.01 1.24h-3.83q.005.3.18.525t.48.355q.305.125.71.125.45 0 .855-.115.405-.12.775-.365l.515 1.11q-.235.18-.61.325a5 5 0 0 1-.79.22 4 4 0 0 1-.795.085m-1.22-3.37h2.17a.79.79 0 0 0-.285-.615q-.275-.23-.745-.23-.475 0-.79.23a.84.84 0 0 0-.35.615"/></svg>