<svg xmlns="http://www.w3.org/2000/svg" width="17" height="17" fill="none" viewBox="0 0 17 17"><path fill="#000" fill-rule="evenodd" d="M14.583 12.171c.287-.038.617-.005.65.37l.186 2.086c.05.557-.797.632-.846.074l-.107-1.192c-3.442 3.972-9.774 3.543-12.62-.926A7.87 7.87 0 0 1 .73 6.97c.098-.554.937-.405.84.147a7.036 7.036 0 0 0 5.109 8.025 7.04 7.04 0 0 0 7.009-2.037l-.927.082c-.556.05-.632-.797-.073-.846zM4.409 3.485l-1.096.097a7.04 7.04 0 0 1 7.009-2.037A7.037 7.037 0 0 1 15.43 9.57c-.098.552.742.7.84.147a7.87 7.87 0 0 0-1.118-5.613C12.36-.286 6.182-.792 2.69 3.004l-.092-1.032c-.049-.558-.895-.483-.846.074l.185 2.069c.017.254.227.43.482.4l2.064-.184c.558-.049.484-.895-.073-.846" clip-rule="evenodd"/></svg>