<svg xmlns="http://www.w3.org/2000/svg" width="33" height="18" fill="none" viewBox="0 0 33 18">
  <mask id="a" width="33" height="18" x="0" y="0" maskUnits="userSpaceOnUse" style="mask-type:luminance">
    <path fill="#fff" d="M0 0h32.99v18H0z"/>
  </mask>
  <g mask="url(#a)">
    <path fill="#1a1a1a" d="m32.708 9-3.845-3.813a.77.77 0 0 0-.534-.229h-2.486V.732a.75.75 0 0 0-.128-.423.76.76 0 0 0-.635-.34H11.351a.75.75 0 0 0-.423.13.77.77 0 0 0-.34.633v13.73a.8.8 0 0 0 .13.423.7.7 0 0 0 .21.21.8.8 0 0 0 .275.114 1 1 0 0 0 .148.015h1.8a3.2 3.2 0 0 0 .342 1.098 3.2 3.2 0 0 0 .708.906 3 3 0 0 0 .465.342 3.194 3.194 0 0 0 4.161-.762 3.3 3.3 0 0 0 .436-.747 3 3 0 0 0 .172-.552q.03-.142.047-.285h4.576a3.2 3.2 0 0 0 .341 1.098 3.3 3.3 0 0 0 .502.705 3.3 3.3 0 0 0 .672.543 3.2 3.2 0 0 0 1.362.448 3.2 3.2 0 0 0 .864-.04 3.3 3.3 0 0 0 .556-.155 3 3 0 0 0 .519-.253 3.2 3.2 0 0 0 .86-.762 3.3 3.3 0 0 0 .436-.747 3 3 0 0 0 .171-.552q.03-.142.048-.285h1.77a.8.8 0 0 0 .29-.058.8.8 0 0 0 .249-.166.7.7 0 0 0 .165-.247.8.8 0 0 0 .058-.292V9.473A.7.7 0 0 0 32.708 9M12.114 1.556h12.203v12.02a.8.8 0 0 0-.076.199h-4.927a4 4 0 0 0-.396-.717 3.6 3.6 0 0 0-.61-.565l-.123-.091a3.8 3.8 0 0 0-.747-.366H17.3a3.6 3.6 0 0 0-.9-.122q-.451.001-.885.122h-.138q-.398.131-.747.366l-.137.091a4 4 0 0 0-.595.565 1 1 0 0 0 0 .107 3 3 0 0 0-.473.412v.091h-1.205zm4.195 15.01a1.663 1.663 0 0 1-1.678-1.662v-.275a1.7 1.7 0 0 1 1.374-1.39 1.67 1.67 0 0 1 .88.078 1.7 1.7 0 0 1 .511.298 1.7 1.7 0 0 1 .378.456 1.7 1.7 0 0 1 .198.558v.275a1.66 1.66 0 0 1-.305.89 1.7 1.7 0 0 1-.456.44 1.7 1.7 0 0 1-.586.238q-.157.032-.316.033zm10.922 0a1.66 1.66 0 0 1-1.499-1.082 1.7 1.7 0 0 1-.103-.641v-.26q.046-.294.199-.549a1.6 1.6 0 0 1 .634-.66 1.6 1.6 0 0 1 .891-.21 1.67 1.67 0 0 1 1.48.846 1.7 1.7 0 0 1 .198.558v.275a2 2 0 0 1-.037.34 1.6 1.6 0 0 1-.106.327 1.7 1.7 0 0 1-.276.431 1.6 1.6 0 0 1-.546.41 1.7 1.7 0 0 1-.835.154zm4.18-2.807h-1.206a3.4 3.4 0 0 0-.411-.717 3.6 3.6 0 0 0-.61-.564l-.122-.091a3.4 3.4 0 0 0-.748-.366h-.137a3.5 3.5 0 0 0-.9-.123 2.9 2.9 0 0 0-.809.107 2 2 0 0 0-.259.092l-.32.106v-5.72h2.18l3.387 3.326zM10.146 7.475a.8.8 0 0 1-.128.424.76.76 0 0 1-.634.339H4.579a.8.8 0 0 1-.424-.129.76.76 0 0 1-.34-.634.76.76 0 0 1 .34-.634.7.7 0 0 1 .275-.114 1 1 0 0 1 .149-.015h4.805a.75.75 0 0 1 .423.129.74.74 0 0 1 .281.342.8.8 0 0 1 .058.292m0 3.05a.8.8 0 0 1-.058.292.8.8 0 0 1-.165.248.76.76 0 0 1-.54.223H.78a.76.76 0 0 1-.634-.339.7.7 0 0 1-.114-.274.76.76 0 0 1 .114-.573.76.76 0 0 1 .634-.34h8.604a.75.75 0 0 1 .423.13.77.77 0 0 1 .34.634m0 3.22a.8.8 0 0 1-.128.423.75.75 0 0 1-.342.281.8.8 0 0 1-.292.058H6.5a.75.75 0 0 1-.424-.128.78.78 0 0 1-.28-.343.7.7 0 0 1-.059-.292.75.75 0 0 1 .223-.539.76.76 0 0 1 .54-.224h2.883a.8.8 0 0 1 .423.129.76.76 0 0 1 .34.634"/>
  </g>
</svg>
